<svg width="40" height="40" viewBox="0 0 40 40" fill="none" xmlns="http://www.w3.org/2000/svg">
<path d="M14.9999 3.33337C10.6333 3.33337 7.08327 6.88337 7.08327 11.25C7.08327 15.5334 10.4333 19 14.7999 19.15C14.9333 19.1334 15.0666 19.1334 15.1666 19.15H15.2833C17.3322 19.0817 19.2742 18.2192 20.6987 16.7449C22.1233 15.2706 22.9186 13.3001 22.9166 11.25C22.9166 6.88337 19.3666 3.33337 14.9999 3.33337ZM23.4666 23.5817C18.8166 20.4817 11.2333 20.4817 6.54993 23.5817C4.43327 24.9984 3.2666 26.915 3.2666 28.965C3.2666 31.015 4.43327 32.915 6.53327 34.315C8.8666 35.8817 11.9333 36.665 14.9999 36.665C18.0666 36.665 21.1333 35.8817 23.4666 34.315C25.5666 32.8984 26.7333 30.9984 26.7333 28.9317C26.7166 26.8817 25.5666 24.9817 23.4666 23.5817ZM33.3166 12.23C33.5833 15.4634 31.2833 18.2967 28.0999 18.68H28.0166C27.9166 18.68 27.8166 18.68 27.7333 18.7134C26.1166 18.7967 24.6333 18.28 23.5166 17.33C25.2333 15.7967 26.2166 13.4967 26.0166 10.9967C25.9022 9.69671 25.4608 8.4468 24.7333 7.36337C25.6066 6.93851 26.5701 6.73249 27.5408 6.76308C28.5115 6.79367 29.4602 7.05995 30.3051 7.53896C31.1499 8.01797 31.8655 8.69532 32.3902 9.51259C32.9148 10.3299 33.2328 11.2625 33.3166 12.23Z" fill="white"/>
<path d="M36.6468 27.65C36.5135 29.2666 35.4801 30.6666 33.7468 31.6166C32.0801 32.5333 29.9801 32.9666 27.8968 32.9166C29.0968 31.8333 29.7968 30.4833 29.9301 29.05C30.0968 26.9833 29.1135 25 27.1468 23.4166C26.0301 22.5333 24.7301 21.8333 23.3135 21.3166C26.9968 20.25 31.6301 20.9666 34.4801 23.2666C36.0135 24.5 36.7968 26.05 36.6468 27.65Z" fill="white"/>
</svg>
