<svg width="40" height="40" viewBox="0 0 40 40" fill="none" xmlns="http://www.w3.org/2000/svg">
<path d="M36.6668 8.08334V27.9C36.6668 29.5167 35.3501 31 33.7335 31.2L33.2168 31.2667C30.4835 31.6333 26.6335 32.7667 23.5335 34.0667C22.4501 34.5167 21.2501 33.7 21.2501 32.5167V9.33334C21.2501 8.71667 21.6001 8.15001 22.1501 7.85001C25.2001 6.20001 29.8168 4.73334 32.9501 4.46667H33.0501C35.0501 4.46667 36.6668 6.08334 36.6668 8.08334ZM17.8468 7.85001C14.7968 6.20001 10.1801 4.73334 7.04681 4.46667H6.93014C4.93014 4.46667 3.31348 6.08334 3.31348 8.08334V27.9C3.31348 29.5167 4.63014 31 6.24681 31.2L6.76348 31.2667C9.49681 31.6333 13.3468 32.7667 16.4468 34.0667C17.5301 34.5167 18.7301 33.7 18.7301 32.5167V9.33334C18.7324 9.02901 18.6512 8.72987 18.4955 8.46839C18.3398 8.2069 18.1154 7.99304 17.8468 7.85001ZM8.33014 12.9H12.0801C12.4117 12.9 12.7296 13.0317 12.964 13.2661C13.1984 13.5005 13.3301 13.8185 13.3301 14.15C13.3301 14.4815 13.1984 14.7995 12.964 15.0339C12.7296 15.2683 12.4117 15.4 12.0801 15.4H8.33014C7.99862 15.4 7.68068 15.2683 7.44626 15.0339C7.21184 14.7995 7.08014 14.4815 7.08014 14.15C7.08014 13.8185 7.21184 13.5005 7.44626 13.2661C7.68068 13.0317 7.99862 12.9 8.33014 12.9ZM13.3301 20.4H8.33014C7.99862 20.4 7.68068 20.2683 7.44626 20.0339C7.21184 19.7995 7.08014 19.4815 7.08014 19.15C7.08014 18.8185 7.21184 18.5005 7.44626 18.2661C7.68068 18.0317 7.99862 17.9 8.33014 17.9H13.3301C13.6617 17.9 13.9796 18.0317 14.214 18.2661C14.4484 18.5005 14.5801 18.8185 14.5801 19.15C14.5801 19.4815 14.4484 19.7995 14.214 20.0339C13.9796 20.2683 13.6617 20.4 13.3301 20.4Z" fill="white"/>
</svg>
