<svg width="354" height="333" viewBox="0 0 354 333" fill="none" xmlns="http://www.w3.org/2000/svg">
<path d="M245.761 166.5C245.761 202.178 215.005 231.152 177 231.152C138.995 231.152 108.239 202.178 108.239 166.5C108.239 130.822 138.995 101.848 177 101.848C215.005 101.848 245.761 130.822 245.761 166.5Z" stroke="#20B486" stroke-opacity="0.25"/>
<path d="M290.225 166.902C290.225 225.458 239.753 272.978 177.428 272.978C115.103 272.978 64.6309 225.458 64.6309 166.902C64.6309 108.346 115.103 60.8261 177.428 60.8261C239.753 60.8261 290.225 108.346 290.225 166.902Z" stroke="#20B486" stroke-opacity="0.25"/>
<path d="M323.573 166.5C323.573 242.603 257.979 304.348 177 304.348C96.0212 304.348 30.4277 242.603 30.4277 166.5C30.4277 90.3971 96.0212 28.6522 177 28.6522C257.979 28.6522 323.573 90.3971 323.573 166.5Z" stroke="#20B486" stroke-opacity="0.25"/>
<path d="M353.5 166.5C353.5 258.151 274.508 332.5 177 332.5C79.4925 332.5 0.5 258.151 0.5 166.5C0.5 74.8491 79.4925 0.5 177 0.5C274.508 0.5 353.5 74.8491 353.5 166.5Z" stroke="#20B486" stroke-opacity="0.25"/>
<circle cx="5" cy="5" r="5" transform="matrix(-1 0 0 1 104 13)" fill="#3493CE"/>
</svg>
