<svg width="40" height="40" viewBox="0 0 40 40" fill="none" xmlns="http://www.w3.org/2000/svg">
<path d="M19.9998 7.74671C12.0331 7.74671 5.5498 14.23 5.5498 22.1967C5.5498 30.1634 12.0331 36.6634 19.9998 36.6634C27.9665 36.6634 34.4498 30.18 34.4498 22.2134C34.4498 14.2467 27.9665 7.74671 19.9998 7.74671ZM21.2498 21.6634C21.2498 22.3467 20.6831 22.9134 19.9998 22.9134C19.3165 22.9134 18.7498 22.3467 18.7498 21.6634V13.33C18.7498 12.6467 19.3165 12.08 19.9998 12.08C20.6831 12.08 21.2498 12.6467 21.2498 13.33V21.6634ZM24.8165 5.75004H15.1831C14.5165 5.75004 13.9831 5.21671 13.9831 4.55004C13.9831 3.88337 14.5165 3.33337 15.1831 3.33337H24.8165C25.4831 3.33337 26.0165 3.86671 26.0165 4.53337C26.0165 5.20004 25.4831 5.75004 24.8165 5.75004Z" fill="white"/>
</svg>
