<svg width="169" height="177" viewBox="0 0 169 177" fill="none" xmlns="http://www.w3.org/2000/svg">
<path fill-rule="evenodd" clip-rule="evenodd" d="M151.674 68.6905C150.698 69.6504 149.146 69.6356 148.178 68.6729C136.575 57.5128 124.358 51.8362 111.901 51.6939C99.7719 51.5571 87.5179 56.8191 75.4954 67.2449C72.823 69.5205 68.6922 74.2587 65.0585 79.8529C68.1074 84.2385 70.1392 89.432 71.1423 94.4355C72.622 101.825 71.5446 108.62 69.106 111.985C67.7547 113.849 66.0123 114.991 63.975 115.467C61.3673 116.072 57.824 115.532 53.7572 112.083C48.1464 107.301 46.7826 100.474 48.4588 92.96C49.3441 89.0101 51.1314 84.8649 53.3578 80.8815C50.7816 78.825 47.5765 77.6354 43.6759 78.0637C35.4192 78.9144 29.2283 85.6942 24.8248 93.6712C21.0058 100.572 16.405 110.767 17.6212 118.867C18.0329 121.62 19.2372 123.986 16.9652 126.236C13.4868 129.717 10.2983 126.113 9.72751 122.332C8.50552 114.21 11.4006 104.426 14.258 96.9332C19.5018 83.1445 29.3423 70.7428 42.6295 69.0331C48.8586 68.2602 54.1442 69.9166 58.4256 72.9942C62.4894 67.3546 66.8723 62.6886 69.7481 60.3468C83.9775 48.9921 98.2982 43.7117 112.154 44.5149C125.996 45.3101 139.421 52.1063 151.692 65.1941C152.652 66.1706 152.651 67.7305 151.674 68.6905ZM59.3796 90.8019C58.5155 93.0935 57.9316 95.345 57.7604 97.4858C57.5471 100.208 58.0723 102.733 60.1941 104.527C60.5536 104.826 60.9915 105.244 61.351 105.544C61.6215 104.598 62.0893 102.739 62.0961 101.201C62.0956 97.7674 61.3151 93.6818 59.7486 89.8767C59.6012 90.1956 59.4835 90.4948 59.3796 90.8019Z" fill="#3493CE"/>
<path fill-rule="evenodd" clip-rule="evenodd" d="M61.6772 105.805C61.9203 105.67 62.1534 105.584 62.1348 105.775C62.1061 106.016 61.9446 105.978 61.6772 105.805Z" fill="#3493CE"/>
<path fill-rule="evenodd" clip-rule="evenodd" d="M144.876 63.2611C143.745 60.7358 142.653 58.0489 141.874 55.4877C140.675 51.491 140.161 47.8346 141.147 45.1728C141.454 43.845 142.793 43.0208 144.113 43.3422C145.441 43.6498 146.265 44.9885 145.943 46.3084C145.875 46.9667 146.105 47.65 146.322 48.4181C146.819 50.2287 147.931 52.1189 149.141 54.1574C150.687 56.7575 152.547 59.3551 154.133 61.7582C155.577 63.9319 156.781 65.9487 157.547 67.5475C158.756 70.0633 158.822 72.1756 158.548 73.4128C158.472 73.7359 155.79 78.5396 151.204 76.6261C149.564 75.9365 145.501 73.9759 145.3 73.8784C142.859 72.5423 138.324 70.1261 134.005 68.8625C132.64 68.4601 131.322 68.1032 130.122 68.0525C130.058 68.1626 129.994 68.2728 129.917 68.375C128.796 69.9673 126.615 70.3422 125.015 69.2346C124.128 68.7042 122.971 67.2101 122.661 66.3154C122.068 64.5774 122.729 63.1782 124.351 62.0219C126.56 60.4522 129.757 60.003 133.351 60.2971C137.128 60.6235 141.407 61.9559 144.876 63.2611ZM148.865 71.3286C149.133 71.8504 149.224 72.2334 148.863 72.3186C148.458 72.4154 148.727 71.7264 148.865 71.3286Z" fill="#3493CE"/>
</svg>
