<svg width="84" height="21" viewBox="0 0 84 21" fill="none" xmlns="http://www.w3.org/2000/svg">
<path d="M21.722 12.83C22.618 12.0553 23.3227 11.4207 23.836 10.926C24.3587 10.422 24.7927 9.89933 25.138 9.358C25.4833 8.81667 25.656 8.27533 25.656 7.734C25.656 7.174 25.5207 6.73533 25.25 6.418C24.9887 6.10067 24.5733 5.942 24.004 5.942C23.4533 5.942 23.024 6.11933 22.716 6.474C22.4173 6.81933 22.2587 7.286 22.24 7.874H20.7C20.728 6.81 21.0453 5.998 21.652 5.438C22.268 4.86867 23.0473 4.584 23.99 4.584C25.0073 4.584 25.8007 4.864 26.37 5.424C26.9487 5.984 27.238 6.73067 27.238 7.664C27.238 8.336 27.0653 8.98467 26.72 9.61C26.384 10.226 25.978 10.7813 25.502 11.276C25.0353 11.7613 24.438 12.326 23.71 12.97L23.08 13.53H27.518V14.86H20.714V13.698L21.722 12.83ZM43.0148 5.27V15H41.4188V8.336L38.4508 15H37.3448L34.3628 8.336V15H32.7668V5.27H34.4888L37.9048 12.9L41.3068 5.27H43.0148ZM48.4585 15.126C47.7305 15.126 47.0725 14.9627 46.4845 14.636C45.8965 14.3 45.4345 13.8333 45.0985 13.236C44.7625 12.6293 44.5945 11.9293 44.5945 11.136C44.5945 10.352 44.7672 9.65667 45.1125 9.05C45.4578 8.44333 45.9292 7.97667 46.5265 7.65C47.1238 7.32333 47.7912 7.16 48.5285 7.16C49.2658 7.16 49.9332 7.32333 50.5305 7.65C51.1278 7.97667 51.5992 8.44333 51.9445 9.05C52.2898 9.65667 52.4625 10.352 52.4625 11.136C52.4625 11.92 52.2852 12.6153 51.9305 13.222C51.5758 13.8287 51.0905 14.3 50.4745 14.636C49.8678 14.9627 49.1958 15.126 48.4585 15.126ZM48.4585 13.74C48.8692 13.74 49.2518 13.642 49.6065 13.446C49.9705 13.25 50.2645 12.956 50.4885 12.564C50.7125 12.172 50.8245 11.696 50.8245 11.136C50.8245 10.576 50.7172 10.1047 50.5025 9.722C50.2878 9.33 50.0032 9.036 49.6485 8.84C49.2938 8.644 48.9112 8.546 48.5005 8.546C48.0898 8.546 47.7072 8.644 47.3525 8.84C47.0072 9.036 46.7318 9.33 46.5265 9.722C46.3212 10.1047 46.2185 10.576 46.2185 11.136C46.2185 11.9667 46.4285 12.6107 46.8485 13.068C47.2778 13.516 47.8145 13.74 48.4585 13.74ZM57.9322 7.16C58.5389 7.16 59.0802 7.286 59.5562 7.538C60.0416 7.79 60.4196 8.16333 60.6902 8.658C60.9609 9.15267 61.0962 9.75 61.0962 10.45V15H59.5142V10.688C59.5142 9.99733 59.3416 9.47 58.9962 9.106C58.6509 8.73267 58.1796 8.546 57.5822 8.546C56.9849 8.546 56.5089 8.73267 56.1542 9.106C55.8089 9.47 55.6362 9.99733 55.6362 10.688V15H54.0402V7.286H55.6362V8.168C55.8976 7.85067 56.2289 7.60333 56.6302 7.426C57.0409 7.24867 57.4749 7.16 57.9322 7.16ZM64.994 8.588V12.858C64.994 13.1473 65.0594 13.3573 65.19 13.488C65.33 13.6093 65.5634 13.67 65.89 13.67H66.87V15H65.61C64.8914 15 64.3407 14.832 63.958 14.496C63.5754 14.16 63.384 13.614 63.384 12.858V8.588H62.474V7.286H63.384V5.368H64.994V7.286H66.87V8.588H64.994ZM72.331 7.16C72.919 7.16 73.4417 7.286 73.899 7.538C74.3657 7.79 74.7297 8.16333 74.991 8.658C75.2617 9.15267 75.397 9.75 75.397 10.45V15H73.815V10.688C73.815 9.99733 73.6423 9.47 73.297 9.106C72.9517 8.73267 72.4803 8.546 71.883 8.546C71.2857 8.546 70.8097 8.73267 70.455 9.106C70.1097 9.47 69.937 9.99733 69.937 10.688V15H68.341V4.64H69.937V8.182C70.2077 7.85533 70.5483 7.60333 70.959 7.426C71.379 7.24867 71.8363 7.16 72.331 7.16ZM80.2328 15.126C79.6261 15.126 79.0801 15.0187 78.5948 14.804C78.1188 14.58 77.7408 14.2813 77.4608 13.908C77.1808 13.5253 77.0315 13.1007 77.0128 12.634H78.6648C78.6928 12.9607 78.8468 13.236 79.1268 13.46C79.4161 13.6747 79.7755 13.782 80.2048 13.782C80.6528 13.782 80.9981 13.698 81.2408 13.53C81.4928 13.3527 81.6188 13.1287 81.6188 12.858C81.6188 12.5687 81.4788 12.354 81.1988 12.214C80.9281 12.074 80.4941 11.92 79.8968 11.752C79.3181 11.5933 78.8468 11.4393 78.4828 11.29C78.1188 11.1407 77.8015 10.912 77.5308 10.604C77.2695 10.296 77.1388 9.89 77.1388 9.386C77.1388 8.97533 77.2601 8.602 77.5028 8.266C77.7455 7.92067 78.0908 7.65 78.5388 7.454C78.9961 7.258 79.5188 7.16 80.1068 7.16C80.9841 7.16 81.6888 7.384 82.2208 7.832C82.7621 8.27067 83.0515 8.87267 83.0888 9.638H81.4928C81.4648 9.29267 81.3248 9.01733 81.0728 8.812C80.8208 8.60667 80.4801 8.504 80.0508 8.504C79.6308 8.504 79.3088 8.58333 79.0848 8.742C78.8608 8.90067 78.7488 9.11067 78.7488 9.372C78.7488 9.57733 78.8235 9.75 78.9728 9.89C79.1221 10.03 79.3041 10.142 79.5188 10.226C79.7335 10.3007 80.0508 10.3987 80.4708 10.52C81.0308 10.6693 81.4881 10.8233 81.8428 10.982C82.2068 11.1313 82.5195 11.3553 82.7808 11.654C83.0421 11.9527 83.1775 12.3493 83.1868 12.844C83.1868 13.2827 83.0655 13.6747 82.8228 14.02C82.5801 14.3653 82.2348 14.636 81.7868 14.832C81.3481 15.028 80.8301 15.126 80.2328 15.126Z" fill="#ACACAC"/>
<g clip-path="url(#clip0_808_2021)">
<path d="M7.99971 2C3.58858 2 0 5.58878 0 9.9999C0 14.4112 3.58858 18 7.99971 18C12.4108 18 15.9996 14.4112 15.9996 9.9999C15.9996 5.58878 12.4106 2 7.99971 2ZM7.99971 16.8434C4.22646 16.8434 1.15642 13.7734 1.15642 9.9999C1.15642 6.22646 4.22626 3.15661 7.99971 3.15661C11.7732 3.15661 14.843 6.22646 14.843 9.9999C14.843 13.7734 11.7732 16.8434 7.99971 16.8434Z" fill="#ACACAC"/>
<path d="M10.314 10.7363C10.3109 10.7363 10.3082 10.7363 10.3051 10.7363L8.57751 10.7621V6.2409C8.57751 5.92149 8.31862 5.6626 7.9992 5.6626C7.67979 5.6626 7.4209 5.92149 7.4209 6.2409V11.3493C7.4209 11.3504 7.42128 11.3516 7.42128 11.3527C7.42128 11.3547 7.4209 11.3564 7.4209 11.358C7.42128 11.3815 7.42572 11.4036 7.4288 11.4262C7.43073 11.4403 7.43092 11.4547 7.43362 11.4686C7.43883 11.4935 7.4475 11.5166 7.45579 11.5399C7.46003 11.5521 7.46273 11.5648 7.46774 11.5764C7.47777 11.6001 7.49126 11.6217 7.50417 11.6438C7.51015 11.6537 7.51458 11.6645 7.52095 11.6741C7.5356 11.6955 7.55314 11.7146 7.57049 11.734C7.57781 11.7421 7.58379 11.7514 7.5915 11.7593C7.6102 11.7778 7.63121 11.7934 7.65222 11.8094C7.6607 11.8158 7.66822 11.8235 7.6769 11.8295C7.69964 11.8449 7.72451 11.857 7.74938 11.869C7.75805 11.873 7.76576 11.8788 7.77463 11.8825C7.80354 11.8946 7.83439 11.9031 7.86562 11.9106C7.8714 11.912 7.8768 11.9147 7.88277 11.9158C7.92017 11.9233 7.95892 11.9276 7.99863 11.9276C8.00152 11.9276 8.0046 11.9276 8.00749 11.9276L10.3223 11.8929C10.6415 11.8881 10.8965 11.6251 10.8919 11.3059C10.8875 10.9896 10.6293 10.7363 10.314 10.7363Z" fill="#ACACAC"/>
</g>
<defs>
<clipPath id="clip0_808_2021">
<rect width="16" height="16" fill="white" transform="translate(0 2)"/>
</clipPath>
</defs>
</svg>
