<svg width="16" height="16" viewBox="0 0 16 16" fill="none" xmlns="http://www.w3.org/2000/svg">
<g clip-path="url(#clip0_808_2023)">
<path d="M7.99971 0C3.58858 0 0 3.58878 0 7.9999C0 12.4112 3.58858 16 7.99971 16C12.4108 16 15.9996 12.4112 15.9996 7.9999C15.9996 3.58878 12.4106 0 7.99971 0ZM7.99971 14.8434C4.22646 14.8434 1.15642 11.7734 1.15642 7.9999C1.15642 4.22646 4.22626 1.15661 7.99971 1.15661C11.7732 1.15661 14.843 4.22646 14.843 7.9999C14.843 11.7734 11.7732 14.8434 7.99971 14.8434Z" fill="#ACACAC"/>
<path d="M10.314 8.73627C10.3109 8.73627 10.3082 8.73627 10.3051 8.73627L8.57751 8.7621V4.2409C8.57751 3.92149 8.31862 3.6626 7.9992 3.6626C7.67979 3.6626 7.4209 3.92149 7.4209 4.2409V9.34928C7.4209 9.35043 7.42128 9.35159 7.42128 9.35275C7.42128 9.35467 7.4209 9.35641 7.4209 9.35795C7.42128 9.38147 7.42572 9.40364 7.4288 9.42619C7.43073 9.44026 7.43092 9.45472 7.43362 9.4686C7.43883 9.49347 7.4475 9.5166 7.45579 9.53992C7.46003 9.55207 7.46273 9.56479 7.46774 9.57636C7.47777 9.60007 7.49126 9.62166 7.50417 9.64383C7.51015 9.65366 7.51458 9.66445 7.52095 9.67409C7.5356 9.69549 7.55314 9.71457 7.57049 9.73404C7.57781 9.74214 7.58379 9.75139 7.5915 9.7593C7.6102 9.7778 7.63121 9.79342 7.65222 9.80942C7.6607 9.81578 7.66822 9.82349 7.6769 9.82946C7.69964 9.84488 7.72451 9.85703 7.74938 9.86898C7.75805 9.87303 7.76576 9.87881 7.77463 9.88247C7.80354 9.89462 7.83439 9.9031 7.86562 9.91062C7.8714 9.91197 7.8768 9.91467 7.88277 9.91582C7.92017 9.92334 7.95892 9.92758 7.99863 9.92758C8.00152 9.92758 8.0046 9.92758 8.00749 9.92758L10.3223 9.89288C10.6415 9.88806 10.8965 9.62513 10.8919 9.3059C10.8875 8.98957 10.6293 8.73627 10.314 8.73627Z" fill="#ACACAC"/>
</g>
<defs>
<clipPath id="clip0_808_2023">
<rect width="16" height="16" fill="white"/>
</clipPath>
</defs>
</svg>
