<svg width="85" height="21" viewBox="0 0 85 21" fill="none" xmlns="http://www.w3.org/2000/svg">
<path d="M20.812 7.314C20.868 6.446 21.1993 5.76933 21.806 5.284C22.422 4.79867 23.206 4.556 24.158 4.556C24.8113 4.556 25.376 4.67267 25.852 4.906C26.328 5.13933 26.6873 5.45667 26.93 5.858C27.1727 6.25933 27.294 6.712 27.294 7.216C27.294 7.79467 27.14 8.28933 26.832 8.7C26.524 9.11067 26.1553 9.386 25.726 9.526V9.582C26.2767 9.75 26.706 10.058 27.014 10.506C27.322 10.9447 27.476 11.5093 27.476 12.2C27.476 12.7507 27.35 13.2407 27.098 13.67C26.846 14.0993 26.4727 14.44 25.978 14.692C25.4833 14.9347 24.8907 15.056 24.2 15.056C23.192 15.056 22.3613 14.7993 21.708 14.286C21.064 13.7633 20.7187 13.0167 20.672 12.046H22.212C22.2493 12.5407 22.4407 12.9467 22.786 13.264C23.1313 13.572 23.598 13.726 24.186 13.726C24.7553 13.726 25.194 13.572 25.502 13.264C25.81 12.9467 25.964 12.5407 25.964 12.046C25.964 11.3927 25.754 10.9307 25.334 10.66C24.9233 10.38 24.2887 10.24 23.43 10.24H23.066V8.924H23.444C24.2 8.91467 24.774 8.78867 25.166 8.546C25.5673 8.30333 25.768 7.92067 25.768 7.398C25.768 6.95 25.6233 6.59533 25.334 6.334C25.0447 6.06333 24.634 5.928 24.102 5.928C23.5793 5.928 23.1733 6.06333 22.884 6.334C22.5947 6.59533 22.422 6.922 22.366 7.314H20.812ZM43.2472 5.27V15H41.6512V8.336L38.6832 15H37.5772L34.5952 8.336V15H32.9992V5.27H34.7212L38.1372 12.9L41.5392 5.27H43.2472ZM48.6909 15.126C47.9629 15.126 47.3049 14.9627 46.7169 14.636C46.1289 14.3 45.6669 13.8333 45.3309 13.236C44.9949 12.6293 44.8269 11.9293 44.8269 11.136C44.8269 10.352 44.9996 9.65667 45.3449 9.05C45.6903 8.44333 46.1616 7.97667 46.7589 7.65C47.3563 7.32333 48.0236 7.16 48.7609 7.16C49.4983 7.16 50.1656 7.32333 50.7629 7.65C51.3603 7.97667 51.8316 8.44333 52.1769 9.05C52.5223 9.65667 52.6949 10.352 52.6949 11.136C52.6949 11.92 52.5176 12.6153 52.1629 13.222C51.8083 13.8287 51.3229 14.3 50.7069 14.636C50.1003 14.9627 49.4283 15.126 48.6909 15.126ZM48.6909 13.74C49.1016 13.74 49.4843 13.642 49.8389 13.446C50.2029 13.25 50.4969 12.956 50.7209 12.564C50.9449 12.172 51.0569 11.696 51.0569 11.136C51.0569 10.576 50.9496 10.1047 50.7349 9.722C50.5203 9.33 50.2356 9.036 49.8809 8.84C49.5263 8.644 49.1436 8.546 48.7329 8.546C48.3223 8.546 47.9396 8.644 47.5849 8.84C47.2396 9.036 46.9643 9.33 46.7589 9.722C46.5536 10.1047 46.4509 10.576 46.4509 11.136C46.4509 11.9667 46.6609 12.6107 47.0809 13.068C47.5103 13.516 48.0469 13.74 48.6909 13.74ZM58.1647 7.16C58.7713 7.16 59.3127 7.286 59.7887 7.538C60.274 7.79 60.652 8.16333 60.9227 8.658C61.1933 9.15267 61.3287 9.75 61.3287 10.45V15H59.7467V10.688C59.7467 9.99733 59.574 9.47 59.2287 9.106C58.8833 8.73267 58.412 8.546 57.8147 8.546C57.2173 8.546 56.7413 8.73267 56.3867 9.106C56.0413 9.47 55.8687 9.99733 55.8687 10.688V15H54.2727V7.286H55.8687V8.168C56.13 7.85067 56.4613 7.60333 56.8627 7.426C57.2733 7.24867 57.7073 7.16 58.1647 7.16ZM65.2265 8.588V12.858C65.2265 13.1473 65.2918 13.3573 65.4225 13.488C65.5625 13.6093 65.7958 13.67 66.1225 13.67H67.1025V15H65.8425C65.1238 15 64.5731 14.832 64.1905 14.496C63.8078 14.16 63.6165 13.614 63.6165 12.858V8.588H62.7065V7.286H63.6165V5.368H65.2265V7.286H67.1025V8.588H65.2265ZM72.5634 7.16C73.1514 7.16 73.6741 7.286 74.1314 7.538C74.5981 7.79 74.9621 8.16333 75.2234 8.658C75.4941 9.15267 75.6294 9.75 75.6294 10.45V15H74.0474V10.688C74.0474 9.99733 73.8748 9.47 73.5294 9.106C73.1841 8.73267 72.7128 8.546 72.1154 8.546C71.5181 8.546 71.0421 8.73267 70.6874 9.106C70.3421 9.47 70.1694 9.99733 70.1694 10.688V15H68.5734V4.64H70.1694V8.182C70.4401 7.85533 70.7808 7.60333 71.1914 7.426C71.6114 7.24867 72.0688 7.16 72.5634 7.16ZM80.4652 15.126C79.8586 15.126 79.3126 15.0187 78.8272 14.804C78.3512 14.58 77.9732 14.2813 77.6932 13.908C77.4132 13.5253 77.2639 13.1007 77.2452 12.634H78.8972C78.9252 12.9607 79.0792 13.236 79.3592 13.46C79.6486 13.6747 80.0079 13.782 80.4372 13.782C80.8852 13.782 81.2306 13.698 81.4732 13.53C81.7252 13.3527 81.8512 13.1287 81.8512 12.858C81.8512 12.5687 81.7112 12.354 81.4312 12.214C81.1606 12.074 80.7266 11.92 80.1292 11.752C79.5506 11.5933 79.0792 11.4393 78.7152 11.29C78.3512 11.1407 78.0339 10.912 77.7632 10.604C77.5019 10.296 77.3712 9.89 77.3712 9.386C77.3712 8.97533 77.4926 8.602 77.7352 8.266C77.9779 7.92067 78.3232 7.65 78.7712 7.454C79.2286 7.258 79.7512 7.16 80.3392 7.16C81.2166 7.16 81.9212 7.384 82.4532 7.832C82.9946 8.27067 83.2839 8.87267 83.3212 9.638H81.7252C81.6972 9.29267 81.5572 9.01733 81.3052 8.812C81.0532 8.60667 80.7126 8.504 80.2832 8.504C79.8632 8.504 79.5412 8.58333 79.3172 8.742C79.0932 8.90067 78.9812 9.11067 78.9812 9.372C78.9812 9.57733 79.0559 9.75 79.2052 9.89C79.3546 10.03 79.5366 10.142 79.7512 10.226C79.9659 10.3007 80.2832 10.3987 80.7032 10.52C81.2632 10.6693 81.7206 10.8233 82.0752 10.982C82.4392 11.1313 82.7519 11.3553 83.0132 11.654C83.2746 11.9527 83.4099 12.3493 83.4192 12.844C83.4192 13.2827 83.2979 13.6747 83.0552 14.02C82.8126 14.3653 82.4672 14.636 82.0192 14.832C81.5806 15.028 81.0626 15.126 80.4652 15.126Z" fill="#ACACAC"/>
<g clip-path="url(#clip0_808_2020)">
<path d="M7.99971 2C3.58858 2 0 5.58878 0 9.9999C0 14.4112 3.58858 18 7.99971 18C12.4108 18 15.9996 14.4112 15.9996 9.9999C15.9996 5.58878 12.4106 2 7.99971 2ZM7.99971 16.8434C4.22646 16.8434 1.15642 13.7734 1.15642 9.9999C1.15642 6.22646 4.22626 3.15661 7.99971 3.15661C11.7732 3.15661 14.843 6.22646 14.843 9.9999C14.843 13.7734 11.7732 16.8434 7.99971 16.8434Z" fill="#ACACAC"/>
<path d="M10.314 10.7363C10.3109 10.7363 10.3082 10.7363 10.3051 10.7363L8.57751 10.7621V6.2409C8.57751 5.92149 8.31862 5.6626 7.9992 5.6626C7.67979 5.6626 7.4209 5.92149 7.4209 6.2409V11.3493C7.4209 11.3504 7.42128 11.3516 7.42128 11.3527C7.42128 11.3547 7.4209 11.3564 7.4209 11.358C7.42128 11.3815 7.42572 11.4036 7.4288 11.4262C7.43073 11.4403 7.43092 11.4547 7.43362 11.4686C7.43883 11.4935 7.4475 11.5166 7.45579 11.5399C7.46003 11.5521 7.46273 11.5648 7.46774 11.5764C7.47777 11.6001 7.49126 11.6217 7.50417 11.6438C7.51015 11.6537 7.51458 11.6645 7.52095 11.6741C7.5356 11.6955 7.55314 11.7146 7.57049 11.734C7.57781 11.7421 7.58379 11.7514 7.5915 11.7593C7.6102 11.7778 7.63121 11.7934 7.65222 11.8094C7.6607 11.8158 7.66822 11.8235 7.6769 11.8295C7.69964 11.8449 7.72451 11.857 7.74938 11.869C7.75805 11.873 7.76576 11.8788 7.77463 11.8825C7.80354 11.8946 7.83439 11.9031 7.86562 11.9106C7.8714 11.912 7.8768 11.9147 7.88277 11.9158C7.92017 11.9233 7.95892 11.9276 7.99863 11.9276C8.00152 11.9276 8.0046 11.9276 8.00749 11.9276L10.3223 11.8929C10.6415 11.8881 10.8965 11.6251 10.8919 11.3059C10.8875 10.9896 10.6293 10.7363 10.314 10.7363Z" fill="#ACACAC"/>
</g>
<defs>
<clipPath id="clip0_808_2020">
<rect width="16" height="16" fill="white" transform="translate(0 2)"/>
</clipPath>
</defs>
</svg>
